<?xml version="1.0" standalone="no"?>
<!DOCTYPE svg PUBLIC "-//W3C//DTD SVG 20010904//EN"
 "http://www.w3.org/TR/2001/REC-SVG-20010904/DTD/svg10.dtd">
<svg version="1.0" xmlns="http://www.w3.org/2000/svg"
 width="744.000000pt" height="574.000000pt" viewBox="0 0 744.000000 574.000000"
 preserveAspectRatio="xMidYMid meet">

<g transform="translate(0.000000,574.000000) scale(0.100000,-0.100000)"
fill="rgb(145, 103, 97)" stroke="none">
<path d="M3763 5568 c-14 -18 -30 -64 -48 -134 -18 -74 -18 -77 -3 -68 7 4 8
3 4 -5 -4 -6 -11 -9 -16 -6 -11 7 -23 -32 -14 -46 4 -7 3 -9 -3 -6 -13 8 -36
-41 -27 -55 5 -7 2 -8 -6 -3 -10 6 -12 4 -7 -9 4 -9 3 -15 -2 -12 -4 3 -20
-16 -35 -43 -29 -53 -32 -66 -14 -55 7 4 8 3 4 -5 -4 -6 -11 -9 -16 -6 -5 3
-14 -3 -19 -14 -14 -26 -14 -34 1 -25 7 4 8 3 4 -5 -4 -6 -12 -8 -18 -5 -8 5
-9 1 -5 -10 4 -10 3 -15 -3 -11 -12 8 -43 -52 -34 -67 4 -7 3 -8 -4 -4 -6 4
-18 -6 -27 -23 -18 -36 -19 -45 -3 -35 7 4 8 3 4 -5 -4 -6 -11 -9 -15 -7 -4 3
-15 -11 -24 -30 -20 -41 -21 -48 -5 -38 7 4 8 3 4 -5 -4 -6 -12 -9 -17 -6 -5
4 -9 5 -9 2 0 -2 -38 -95 -85 -207 -49 -115 -83 -211 -80 -221 3 -9 1 -20 -4
-24 -7 -4 -9 1 -5 12 5 17 5 17 -6 0 -6 -9 -8 -27 -5 -40 5 -16 4 -18 -3 -8
-8 11 -11 9 -17 -8 -3 -11 -3 -26 1 -32 4 -7 3 -9 -4 -5 -13 8 -26 -29 -16
-45 4 -7 3 -9 -4 -5 -14 8 -35 -55 -26 -80 4 -14 3 -16 -4 -5 -8 11 -11 9 -17
-8 -3 -11 -3 -26 1 -32 5 -8 3 -9 -6 -4 -10 6 -12 3 -8 -13 4 -12 2 -20 -2
-17 -12 7 -63 -152 -54 -166 4 -7 3 -9 -3 -6 -26 16 -205 -706 -190 -765 3
-10 2 -16 -2 -14 -10 7 -94 -401 -85 -415 4 -7 3 -10 -3 -6 -6 4 -21 -46 -37
-126 -15 -73 -30 -140 -32 -149 -10 -35 -12 -32 -127 152 -62 98 -88 134 -68
90 11 -23 11 -24 -3 -6 -9 10 -13 23 -10 28 5 8 -62 138 -72 138 -3 0 -2 -4 1
-10 10 -16 -1 -11 -16 7 -10 11 -10 14 -1 9 6 -4 12 -3 12 2 0 11 -32 40 -45
41 -5 1 -10 6 -10 11 0 15 -86 81 -96 74 -5 -3 -8 -2 -7 3 4 13 -178 184 -187
175 -5 -4 -5 -2 -2 4 8 15 -18 38 -33 29 -6 -4 -9 -2 -8 3 4 15 -81 74 -94 66
-6 -4 -8 -3 -5 4 8 12 -89 96 -102 88 -5 -3 -15 2 -22 12 -12 15 -12 16 1 7 9
-5 7 -2 -3 7 -11 10 -23 16 -27 13 -5 -3 -12 0 -16 6 -4 8 -3 9 4 5 7 -4 12
-5 12 -2 0 8 -60 48 -75 50 -8 1 -18 6 -22 11 -4 4 -1 5 7 1 8 -4 2 4 -14 18
-17 14 -34 22 -39 19 -6 -3 -7 -1 -3 5 8 13 -28 35 -39 24 -5 -4 -5 -2 -2 4 7
12 -38 47 -60 47 -6 0 -11 5 -10 11 1 6 -6 10 -15 10 -10 -1 -15 3 -11 9 4 6
0 8 -10 4 -9 -3 -19 -1 -23 5 -5 7 -2 8 7 3 12 -8 12 -6 0 8 -9 11 -21 15 -35
12 -14 -4 -17 -3 -8 3 10 6 2 16 -30 37 -23 16 -48 28 -55 28 -7 0 -10 4 -7 8
5 9 -31 31 -38 23 -3 -2 -11 4 -19 13 -13 17 -13 17 6 4 11 -8 4 2 -16 23 -19
20 -44 39 -55 40 -10 2 -19 9 -19 17 0 17 -116 100 -133 94 -7 -3 -10 0 -7 5
3 5 -12 18 -34 30 -48 24 -62 26 -35 4 18 -14 18 -15 -4 -4 -12 6 -20 15 -17
20 3 5 -17 21 -45 37 -35 20 -50 34 -50 49 0 28 -24 48 -50 41 -11 -3 -23 0
-27 5 -4 7 -1 8 8 3 11 -6 11 -5 2 5 -20 22 -43 4 -43 -34 0 -24 6 -38 19 -45
14 -8 20 -24 23 -60 1 -27 0 -47 -4 -45 -35 22 -26 -806 12 -1121 19 -152 53
-326 62 -313 5 8 6 3 3 -13 -4 -17 11 -93 39 -204 25 -97 46 -179 46 -181 0
-3 5 -2 12 2 7 5 8 3 3 -5 -11 -18 36 -176 47 -159 5 8 6 2 2 -16 -5 -22 -4
-27 6 -21 9 5 11 4 6 -3 -9 -15 14 -93 25 -86 5 3 6 -2 3 -10 -8 -21 57 -207
69 -199 6 3 7 1 3 -5 -9 -14 4 -63 14 -57 5 3 12 0 16 -6 4 -8 3 -9 -4 -5 -16
10 -15 6 9 -48 11 -26 24 -44 29 -41 6 4 7 -2 3 -11 -5 -13 -3 -15 7 -9 9 5
11 4 6 -3 -4 -6 -2 -21 5 -33 9 -18 13 -19 21 -8 7 11 8 9 4 -5 -4 -12 3 -33
20 -58 24 -34 46 -55 28 -26 -4 7 -3 8 5 4 6 -4 9 -12 5 -17 -8 -13 16 -40 29
-32 5 3 7 2 4 -3 -7 -13 9 -39 24 -39 7 0 13 -8 15 -18 5 -39 225 -254 246
-241 6 4 8 2 5 -3 -9 -14 19 -37 33 -28 6 4 9 1 8 -7 -2 -7 5 -13 14 -13 9 0
20 -4 25 -9 5 -5 2 -6 -6 -1 -10 6 -12 4 -7 -4 5 -7 14 -10 22 -7 7 3 16 0 20
-6 4 -7 3 -8 -4 -4 -7 4 -12 5 -12 3 0 -12 91 -57 102 -51 7 4 8 3 4 -4 -8
-14 70 -56 86 -46 6 4 8 3 5 -3 -8 -13 20 -26 35 -16 6 3 8 1 5 -4 -8 -13 150
-86 165 -77 6 4 8 3 4 -4 -8 -13 59 -36 75 -26 7 4 9 3 6 -3 -4 -7 27 -21 77
-37 155 -48 555 -132 582 -122 8 3 13 2 10 -3 -7 -11 89 -25 105 -15 7 4 9 3
6 -3 -4 -7 15 -15 51 -21 393 -71 506 -83 821 -89 249 -5 541 7 648 27 24 4
40 3 37 -1 -3 -5 4 -9 15 -9 11 0 23 5 27 12 5 7 3 8 -7 3 -12 -8 -12 -6 0 8
15 19 26 23 15 6 -5 -8 0 -10 17 -6 13 3 63 13 111 23 54 10 85 21 81 27 -3 6
-1 7 5 3 16 -9 83 4 76 15 -3 5 2 6 11 3 22 -9 167 45 158 59 -3 6 -1 7 6 3
16 -10 53 3 45 16 -4 6 -2 8 4 4 13 -8 63 14 56 25 -3 5 3 6 12 2 12 -4 15 -3
10 5 -5 8 -1 10 10 5 11 -4 15 -2 11 4 -4 6 1 10 11 9 9 0 16 5 14 12 -1 8 2
11 8 7 17 -10 50 14 44 33 -5 13 -4 14 4 3 8 -11 14 -10 36 4 26 17 37 33 14
19 -8 -4 -9 -3 -5 2 5 5 16 9 25 9 9 0 17 7 17 15 0 8 8 14 16 12 9 -1 23 5
30 15 12 15 12 16 -1 8 -9 -5 -8 0 4 13 21 25 36 31 16 7 -7 -8 -8 -15 -2 -15
14 0 33 26 24 34 -4 4 0 6 8 4 8 -2 14 2 15 9 0 6 4 15 9 20 5 5 6 3 2 -5 -4
-6 -3 -12 2 -12 10 0 50 41 51 53 1 4 4 7 9 7 10 1 112 103 112 113 0 4 -5 5
-12 1 -7 -5 -8 -3 -4 5 5 7 11 10 14 7 9 -9 32 15 25 27 -3 6 -1 7 5 3 11 -6
38 31 34 46 -1 5 3 7 9 5 6 -1 14 4 17 12 3 9 0 11 -8 6 -9 -5 -11 -4 -6 4 4
6 11 9 16 6 12 -7 33 22 24 36 -4 7 -3 9 3 6 14 -9 37 19 28 33 -4 6 -1 9 7 8
7 -2 13 5 13 14 0 9 4 20 9 25 5 5 6 2 1 -6 -6 -10 -4 -12 4 -7 7 5 10 15 7
23 -3 8 -2 12 3 8 5 -3 19 10 30 29 24 37 27 51 9 40 -7 -4 -8 -3 -4 5 4 6 11
9 16 6 13 -8 72 113 64 128 -4 7 -3 9 1 4 5 -4 15 7 23 25 29 69 162 421 162
430 0 5 -5 6 -12 2 -7 -4 -8 -3 -4 5 4 6 11 9 16 6 10 -6 112 284 105 302 -2
8 -1 12 4 9 21 -13 119 422 109 479 -3 13 -2 22 2 20 13 -8 50 326 70 625 22
335 41 610 50 706 6 64 6 114 0 135 -6 19 -10 49 -10 67 0 18 -5 42 -10 53
-12 21 -19 53 -55 249 -46 249 -72 320 -116 320 -25 0 -50 -11 -44 -20 3 -4
-3 -7 -13 -6 -9 0 -16 -5 -14 -12 1 -8 -2 -11 -8 -7 -17 10 -42 -15 -30 -30 7
-8 5 -12 -5 -12 -8 0 -12 4 -9 9 10 16 -9 7 -40 -18 -17 -15 -31 -31 -31 -37
0 -6 -8 -11 -18 -13 -25 -3 -58 -34 -50 -47 3 -5 1 -7 -5 -3 -12 7 -74 -63
-66 -76 3 -5 0 -7 -8 -6 -7 2 -12 -5 -12 -14 1 -10 -2 -16 -6 -13 -10 6 -31
-19 -34 -42 -2 -10 -8 -18 -13 -18 -6 0 -37 -26 -69 -59 -33 -32 -83 -76 -111
-98 -29 -22 -51 -44 -48 -48 3 -4 -3 -14 -12 -21 -14 -12 -16 -12 -9 0 6 9 5
12 -3 10 -7 -3 -12 -9 -11 -14 1 -5 -8 -13 -20 -17 -14 -5 -20 -14 -16 -23 3
-8 0 -14 -6 -12 -16 3 -100 -102 -92 -116 4 -7 4 -9 -1 -5 -4 4 -14 3 -22 -3
-16 -14 -18 -33 -1 -23 7 4 8 3 4 -5 -4 -6 -11 -9 -16 -6 -11 7 -51 -50 -42
-60 4 -5 2 -5 -5 -1 -11 6 -98 -86 -98 -105 0 -5 -3 -8 -7 -6 -12 4 -58 -46
-51 -56 3 -6 1 -7 -5 -4 -13 9 -64 -51 -56 -65 4 -6 2 -8 -4 -4 -6 3 -18 -4
-26 -16 -12 -17 -13 -25 -3 -37 10 -14 10 -14 -5 -3 -18 14 -34 0 -22 -20 4
-6 3 -8 -4 -4 -13 8 -76 -80 -67 -95 8 -12 -14 -41 -25 -34 -4 3 -15 -6 -24
-20 -18 -27 -22 -49 -5 -25 9 13 10 13 6 0 -2 -8 -9 -14 -15 -13 -14 3 -35
-34 -27 -47 4 -6 1 -9 -7 -8 -7 2 -13 -5 -13 -14 0 -9 -4 -20 -9 -25 -5 -5 -6
-2 -2 7 4 8 0 6 -8 -5 -9 -11 -14 -25 -12 -32 3 -7 0 -15 -6 -19 -7 -5 -8 -2
-3 6 6 9 4 11 -4 6 -7 -5 -10 -14 -7 -22 3 -8 0 -13 -6 -11 -6 1 -13 -4 -16
-12 -3 -9 0 -11 8 -6 9 6 11 4 6 -4 -5 -7 -11 -10 -14 -7 -9 10 -34 -33 -26
-46 4 -6 3 -8 -3 -5 -14 9 -56 -61 -47 -75 4 -7 2 -8 -5 -4 -7 5 -26 -23 -54
-81 l-42 -88 -17 95 c-29 158 -71 329 -79 324 -4 -2 -11 1 -15 7 -4 8 -3 9 4
5 8 -5 12 1 12 14 0 13 -4 19 -12 14 -7 -5 -8 -3 -4 5 10 15 -54 222 -65 215
-5 -3 -6 1 -4 8 7 19 -69 220 -80 211 -4 -5 -5 -3 -1 4 8 15 -23 95 -35 87 -5
-3 -6 3 -2 12 5 13 3 15 -7 9 -9 -6 -11 -4 -5 4 9 15 -43 143 -55 136 -5 -3
-6 5 -2 17 4 16 2 19 -8 13 -8 -5 -11 -4 -7 2 10 16 -23 104 -35 96 -7 -3 -8
-1 -4 5 9 14 -4 63 -14 57 -5 -3 -6 5 -2 17 4 16 2 19 -8 13 -9 -6 -11 -4 -5
4 11 19 -56 186 -68 169 -6 -9 -7 -7 -3 6 8 23 -62 188 -75 180 -5 -3 -6 3 -2
12 5 13 3 15 -7 9 -9 -6 -11 -4 -5 5 10 16 -45 131 -58 123 -6 -3 -7 -1 -3 5
9 14 -25 83 -37 75 -6 -3 -7 -1 -4 5 4 5 4 18 1 27 -6 13 -9 14 -16 3 -6 -9
-7 -6 -3 8 7 26 -14 76 -28 67 -6 -3 -7 -1 -4 4 10 15 -33 114 -46 106 -6 -3
-7 -1 -3 5 8 13 -3 64 -13 58 -3 -2 -6 6 -7 17 0 12 -9 49 -18 82 -9 33 -20
94 -23 135 -3 41 -10 83 -15 93 -10 20 -61 23 -75 5z m31 -325 c31 -100 108
-273 119 -266 5 3 7 1 4 -5 -10 -15 3 -43 16 -35 5 3 7 1 4 -5 -10 -15 3 -43
16 -35 5 3 7 1 4 -5 -10 -15 3 -43 16 -35 6 4 7 1 2 -6 -10 -17 35 -112 48
-104 6 3 7 1 4 -5 -10 -15 3 -43 16 -35 6 3 7 1 3 -5 -8 -13 54 -163 65 -157
4 3 13 -3 20 -13 13 -15 12 -16 -3 -3 -10 7 -18 10 -18 5 1 -21 66 -174 72
-169 3 4 9 1 14 -6 4 -8 3 -10 -4 -5 -16 10 -15 2 9 -76 13 -39 26 -65 32 -61
6 3 7 1 3 -6 -10 -16 3 -53 16 -45 7 4 8 2 4 -5 -10 -15 13 -83 25 -76 5 4 6
0 4 -8 -3 -7 6 -40 21 -73 14 -32 45 -110 68 -171 35 -94 45 -110 56 -100 12
10 12 9 1 -5 -11 -15 -10 -26 5 -67 10 -28 22 -47 27 -44 6 3 7 1 3 -6 -11
-17 66 -284 77 -268 5 7 6 4 2 -9 -3 -12 6 -77 19 -145 25 -124 50 -283 83
-544 16 -121 18 -222 18 -745 0 -436 -4 -636 -13 -715 -35 -290 -63 -446 -111
-614 -17 -57 -31 -105 -33 -106 -13 -12 -282 -25 -509 -25 -351 0 -540 17
-864 76 -76 14 -151 23 -165 19 -15 -3 -20 -2 -12 3 8 5 -26 15 -90 26 -144
24 -135 19 -143 81 -3 31 -10 53 -13 51 -9 -6 -10 30 -18 539 -6 459 1 610 42
884 8 57 13 116 9 130 -4 17 -3 21 3 13 10 -15 46 161 39 188 -2 8 -2 11 1 6
4 -9 121 492 122 522 0 7 -5 10 -12 6 -7 -4 -8 -3 -4 5 4 6 11 9 15 7 9 -6 44
171 36 184 -3 6 -1 10 6 10 7 0 10 13 7 34 -2 19 -1 33 3 31 10 -7 42 172 33
186 -4 7 -3 9 3 6 5 -3 21 45 37 111 16 64 49 179 73 255 24 75 41 143 37 149
-4 6 -3 8 3 5 13 -8 22 26 19 70 -2 18 1 30 6 27 5 -3 6 -15 2 -27 -3 -12 -4
-20 -1 -17 14 13 97 245 92 257 -2 8 -1 11 4 8 12 -7 24 31 15 46 -4 7 -3 9 3
6 13 -8 57 99 47 114 -4 7 -3 9 3 6 6 -4 20 17 32 49 16 43 19 60 10 77 -9 20
-9 21 5 4 14 -18 14 -18 21 2 3 12 3 26 -1 32 -4 7 -3 9 3 6 10 -6 99 187 97
210 -1 7 3 10 9 6 7 -4 8 0 3 13 -4 10 -4 15 0 11 10 -10 36 31 28 45 -4 6 -3
8 3 5 17 -10 25 24 11 42 -11 14 -11 14 4 3 14 -11 18 -10 28 8 6 11 8 26 4
32 -4 6 -3 8 3 5 13 -8 46 50 37 65 -4 6 -3 8 3 5 13 -8 46 50 37 65 -4 6 -3
8 3 5 13 -8 46 50 37 65 -4 6 -3 8 3 5 13 -8 26 20 16 35 -3 7 -1 8 5 4 7 -4
14 3 18 19 9 38 19 31 38 -32z m-173 -66 c-10 -9 -11 -8 -5 6 3 10 9 15 12 12
3 -3 0 -11 -7 -18z m-197 -395 c3 -5 -1 -9 -9 -9 -8 0 -12 4 -9 9 3 4 7 8 9 8
2 0 6 -4 9 -8z m2886 -217 c12 -77 36 -192 52 -255 47 -183 47 -110 2 -925
-16 -291 -35 -498 -61 -665 -9 -58 -17 -126 -17 -152 -1 -25 -3 -42 -6 -38 -6
10 -33 -110 -34 -152 -1 -14 -3 -25 -5 -23 -7 8 -141 -407 -135 -417 4 -6 3
-8 -2 -5 -13 8 -128 -298 -119 -314 5 -7 4 -10 -2 -6 -12 8 -77 -149 -67 -164
4 -7 3 -9 -3 -6 -13 8 -26 -20 -16 -35 4 -7 1 -8 -7 -3 -10 6 -12 4 -6 -11 4
-10 4 -15 0 -11 -11 10 -66 -81 -58 -95 5 -7 2 -8 -6 -3 -10 6 -12 4 -7 -8 3
-9 1 -19 -5 -23 -7 -5 -8 -2 -3 7 4 8 -4 1 -19 -16 -27 -32 -34 -51 -13 -39 7
4 9 3 4 -2 -5 -5 -14 -9 -20 -9 -7 0 -11 -8 -11 -18 1 -9 -2 -15 -6 -12 -4 2
-21 -13 -39 -35 -33 -41 -39 -56 -18 -44 8 5 7 2 -2 -9 -8 -10 -16 -15 -19
-12 -7 6 -32 -15 -32 -27 0 -5 6 -6 13 -2 7 4 9 3 4 -2 -5 -5 -10 -7 -13 -4
-6 8 -143 -133 -138 -142 3 -5 2 -7 -3 -6 -14 5 -103 -74 -96 -85 3 -5 2 -7
-4 -4 -12 8 -68 -29 -68 -45 0 -7 -9 -13 -20 -13 -11 0 -19 -5 -18 -11 1 -7
-5 -11 -15 -10 -9 0 -16 -5 -14 -12 1 -8 -2 -11 -7 -8 -13 8 -82 -34 -75 -45
3 -5 -3 -6 -12 -2 -12 4 -15 3 -10 -5 5 -8 1 -10 -10 -5 -13 5 -15 3 -9 -7 5
-8 4 -11 -2 -7 -13 8 -117 -36 -107 -45 3 -4 -4 -4 -17 -1 -17 5 -20 3 -14 -7
5 -9 4 -11 -4 -6 -6 4 -39 -2 -74 -13 -67 -22 -160 -45 -219 -55 l-36 -7 1 40
c1 21 5 37 9 35 10 -7 21 63 12 77 -4 8 -3 10 4 5 7 -4 12 -4 12 1 0 4 9 51
19 103 66 324 81 533 81 1105 0 478 -5 583 -36 851 l-17 142 27 66 c14 37 23
72 20 78 -5 7 -2 8 6 3 10 -6 12 -4 6 11 -4 10 -4 15 0 11 10 -9 76 111 68
124 -3 5 0 8 8 7 7 -2 12 5 12 14 -1 10 2 15 7 13 10 -7 32 32 24 45 -3 5 0
12 6 16 8 5 10 2 5 -7 -4 -8 2 -3 13 11 20 24 25 36 22 53 -1 5 4 5 10 1 9 -5
10 -2 6 10 -4 10 -3 15 3 11 11 -7 32 29 22 40 -4 5 -2 5 5 1 11 -6 30 29 25
47 -1 5 3 5 9 1 9 -5 10 -2 6 10 -4 9 -3 15 2 12 12 -8 43 42 35 56 -4 7 -3 8
4 4 12 -7 37 29 37 54 0 8 7 15 15 15 8 0 14 8 14 17 -1 10 3 16 10 15 6 -1
10 6 10 15 -1 10 2 16 6 13 11 -7 62 63 55 75 -4 6 -1 9 7 8 7 -2 12 3 10 10
-1 8 1 11 6 8 9 -5 147 141 147 156 0 4 3 7 7 6 12 -5 58 45 51 55 -3 6 -1 7
5 3 13 -8 54 43 45 57 -3 5 -1 7 4 4 14 -9 47 29 38 43 -3 6 -1 9 7 8 7 -2 12
3 10 10 -1 8 2 11 7 8 9 -6 47 44 43 57 -1 5 2 6 6 3 12 -7 44 28 40 45 -2 7
4 13 12 14 8 0 15 5 15 12 0 7 6 18 14 25 11 11 13 11 6 -1 -5 -9 -3 -12 6 -9
8 3 13 11 11 17 -1 7 1 10 6 8 4 -3 19 4 32 15 14 11 18 16 10 12 -8 -4 -12
-4 -8 0 3 4 8 7 10 5 9 -7 48 24 42 34 -4 7 -4 9 1 5 12 -11 66 31 59 45 -4 7
-4 9 1 5 10 -9 37 11 30 22 -3 4 3 14 13 21 16 13 16 12 3 -6 -7 -11 5 0 27
24 23 25 39 49 36 53 -3 5 0 7 8 6 7 -2 13 6 13 17 0 11 6 20 13 20 15 0 33
26 26 37 -3 5 -1 7 3 6 5 -2 36 21 69 51 32 30 53 51 45 46 -10 -5 -12 -4 -7
4 4 6 11 9 15 6 5 -2 26 9 47 25 21 16 42 26 46 22 4 -4 16 -70 28 -147z
m-3056 -293 c3 -5 -1 -9 -9 -9 -8 0 -12 4 -9 9 3 4 7 8 9 8 2 0 6 -4 9 -8z
m2287 -155 c-10 -9 -11 -8 -5 6 3 10 9 15 12 12 3 -3 0 -11 -7 -18z m956 -79
c-3 -8 -6 -5 -6 6 -1 11 2 17 5 13 3 -3 4 -12 1 -19z m-5670 -50 c-3 -8 -6 -5
-6 6 -1 11 2 17 5 13 3 -3 4 -12 1 -19z m4676 -23 c-3 -9 -8 -14 -10 -11 -3 3
-2 9 2 15 9 16 15 13 8 -4z m-4596 -12 c-11 -10 31 -35 46 -27 6 4 9 4 5 -1
-4 -4 0 -14 10 -21 25 -19 37 -17 21 4 -13 15 -12 16 4 3 9 -8 15 -16 12 -19
-9 -9 35 -33 47 -26 7 4 8 3 4 -4 -7 -11 6 -17 27 -13 5 1 6 -2 3 -7 -7 -12
79 -73 89 -64 5 4 5 2 2 -4 -8 -14 58 -78 71 -70 6 3 14 1 18 -5 5 -8 2 -10
-7 -5 -8 4 4 -9 26 -28 22 -20 46 -34 53 -31 7 3 11 1 8 -4 -8 -12 21 -34 33
-27 5 4 13 1 17 -5 5 -8 3 -9 -7 -4 -31 17 9 -14 76 -60 39 -26 76 -48 82 -48
7 0 11 -3 8 -5 -6 -7 15 -32 27 -32 5 0 6 5 2 12 -4 7 -3 8 5 4 6 -4 9 -11 6
-16 -7 -11 45 -51 56 -44 5 3 8 0 7 -8 -2 -7 4 -13 12 -13 8 0 17 -5 18 -10 7
-21 25 -35 41 -33 8 2 16 -3 16 -10 0 -21 27 -32 45 -19 13 10 13 10 3 -4 -11
-13 -2 -24 58 -73 38 -32 76 -59 84 -60 8 -1 18 -6 22 -11 4 -4 2 -5 -6 0 -10
6 -12 4 -7 -4 5 -7 15 -10 23 -7 8 3 12 2 9 -3 -3 -4 8 -18 24 -29 33 -25 45
-28 34 -9 -4 6 5 1 19 -12 15 -14 25 -27 22 -30 -9 -8 57 -71 68 -64 6 3 7 1
4 -5 -8 -12 51 -65 63 -57 5 3 12 0 16 -6 5 -8 2 -10 -7 -5 -8 4 -1 -4 15 -18
17 -14 34 -22 38 -20 5 3 7 0 6 -8 -2 -7 5 -13 14 -13 10 0 25 -9 35 -20 18
-19 18 -19 -7 0 -22 17 -21 15 4 -12 16 -18 34 -31 39 -30 6 1 12 -4 13 -10 1
-7 2 -18 3 -24 0 -5 5 -8 10 -4 5 3 13 0 17 -6 4 -8 3 -9 -4 -5 -7 4 -12 4
-12 -1 1 -13 27 -43 32 -37 4 3 5 -3 4 -13 0 -10 4 -17 10 -16 7 1 11 -5 10
-15 0 -9 6 -17 14 -17 8 -1 14 -7 12 -13 -4 -19 17 -53 28 -47 6 3 7 0 4 -8
-3 -8 0 -18 7 -23 8 -5 10 -3 4 6 -5 9 -4 11 4 6 6 -4 9 -12 5 -17 -7 -12 51
-91 60 -81 4 4 7 2 6 -3 -5 -21 0 -36 9 -30 5 3 13 0 17 -6 4 -8 3 -9 -4 -5
-7 4 -12 4 -12 1 0 -11 59 -93 73 -101 9 -6 8 -4 -1 8 -9 11 -10 18 -2 23 6 4
10 3 9 -2 -1 -4 0 -10 1 -13 8 -20 6 -67 -6 -137 -20 -120 -43 -319 -54 -473
-25 -338 0 -936 46 -1126 4 -14 0 -24 -12 -28 -10 -4 -15 -4 -11 0 4 5 -48 20
-115 35 -68 15 -160 39 -206 54 -45 14 -87 23 -94 19 -6 -4 -8 -3 -5 3 8 12
-59 37 -74 27 -8 -5 -9 -3 -4 6 6 10 4 12 -11 6 -10 -4 -15 -4 -11 1 10 10
-162 95 -175 87 -6 -4 -8 -3 -5 3 7 12 -40 36 -54 27 -5 -3 -8 0 -7 8 2 7 -5
12 -14 12 -10 -1 -15 3 -11 9 4 6 0 8 -10 4 -10 -4 -16 -2 -14 6 1 7 -6 11
-15 11 -10 -1 -15 3 -11 9 4 6 0 8 -10 4 -9 -3 -19 -1 -23 5 -5 7 -2 8 7 4 8
-4 5 -1 -5 8 -10 8 -23 13 -29 9 -6 -3 -7 -1 -3 5 10 17 -13 25 -32 10 -15
-11 -16 -11 -4 3 10 13 10 19 -2 29 -9 6 -21 8 -27 4 -7 -4 -9 -3 -5 4 7 11
-88 97 -108 97 -6 0 -11 6 -11 13 0 20 -55 83 -67 76 -6 -4 -8 -3 -5 3 4 6 0
16 -8 23 -13 11 -14 10 -9 -6 5 -15 4 -16 -4 -4 -6 8 -9 18 -6 22 6 10 -75
113 -90 113 -6 1 -10 7 -8 14 1 7 -6 24 -16 39 -11 15 -29 46 -41 70 -13 26
-26 40 -33 36 -7 -5 -8 -3 -4 5 10 16 -13 73 -27 64 -6 -3 -7 -1 -3 6 11 18
-34 147 -46 130 -5 -9 -6 -4 -2 15 5 22 4 27 -6 21 -8 -5 -11 -4 -6 3 4 6 4
23 0 37 -5 21 -9 24 -16 13 -7 -9 -8 -7 -4 7 6 21 -58 233 -66 219 -3 -5 -3
-3 -2 4 2 7 -8 52 -22 100 -41 141 -101 393 -123 514 -37 204 -54 402 -75 893
-6 152 9 406 26 416 16 10 24 12 15 2z m2223 -29 c0 -8 -5 -12 -10 -9 -6 4 -8
11 -5 16 9 14 15 11 15 -7z m3277 -36 c-3 -8 -6 -5 -6 6 -1 11 2 17 5 13 3 -3
4 -12 1 -19z m80 -10 c-3 -8 -6 -5 -6 6 -1 11 2 17 5 13 3 -3 4 -12 1 -19z
m-5630 -100 c-3 -8 -6 -5 -6 6 -1 11 2 17 5 13 3 -3 4 -12 1 -19z m-60 -135
c-3 -10 -5 -4 -5 12 0 17 2 24 5 18 2 -7 2 -21 0 -30z m543 11 c0 -8 -19 -13
-24 -6 -3 5 1 9 9 9 8 0 15 -2 15 -3z m70 -10 c0 -8 -19 -13 -24 -6 -3 5 1 9
9 9 8 0 15 -2 15 -3z m5057 -26 c-3 -8 -6 -5 -6 6 -1 11 2 17 5 13 3 -3 4 -12
1 -19z m-5670 -55 c-3 -10 -5 -2 -5 17 0 19 2 27 5 18 2 -10 2 -26 0 -35z
m5590 -55 c-3 -7 -5 -2 -5 12 0 14 2 19 5 13 2 -7 2 -19 0 -25z m70 -15 c-3
-10 -5 -4 -5 12 0 17 2 24 5 18 2 -7 2 -21 0 -30z m-5600 -15 c-3 -8 -6 -5 -6
6 -1 11 2 17 5 13 3 -3 4 -12 1 -19z m2080 -60 c-3 -8 -6 -5 -6 6 -1 11 2 17
5 13 3 -3 4 -12 1 -19z m-16 -75 c-12 -20 -14 -14 -5 12 4 9 9 14 11 11 3 -2
0 -13 -6 -23z m-1050 -100 c13 -16 12 -17 -3 -4 -17 13 -22 21 -14 21 2 0 10
-8 17 -17z m-1004 -35 c-3 -7 -5 -2 -5 12 0 14 2 19 5 13 2 -7 2 -19 0 -25z
m1254 -85 c13 -16 12 -17 -3 -4 -10 7 -18 15 -18 17 0 8 8 3 21 -13z m4236
-105 c-3 -8 -6 -5 -6 6 -1 11 2 17 5 13 3 -3 4 -12 1 -19z m50 -150 c-3 -8 -6
-5 -6 6 -1 11 2 17 5 13 3 -3 4 -12 1 -19z m-5570 -60 c-3 -8 -6 -5 -6 6 -1
11 2 17 5 13 3 -3 4 -12 1 -19z m70 -50 c-3 -8 -6 -5 -6 6 -1 11 2 17 5 13 3
-3 4 -12 1 -19z m-60 -20 c-3 -8 -6 -5 -6 6 -1 11 2 17 5 13 3 -3 4 -12 1 -19z
m3930 -305 c-3 -10 -5 -4 -5 12 0 17 2 24 5 18 2 -7 2 -21 0 -30z m-90 -155
c-2 -13 -4 -5 -4 17 -1 22 1 32 4 23 2 -10 2 -28 0 -40z m-3740 -20 c-3 -8 -6
-5 -6 6 -1 11 2 17 5 13 3 -3 4 -12 1 -19z m161 -313 c-3 -3 -9 2 -12 12 -6
14 -5 15 5 6 7 -7 10 -15 7 -18z m1569 -357 c-3 -8 -6 -5 -6 6 -1 11 2 17 5
13 3 -3 4 -12 1 -19z m2010 -20 c-3 -8 -6 -5 -6 6 -1 11 2 17 5 13 3 -3 4 -12
1 -19z m-3361 -173 c-1 -8 -5 -17 -8 -21 -5 -4 -4 16 1 34 3 9 9 -1 7 -13z
m1301 -127 c-3 -8 -6 -5 -6 6 -1 11 2 17 5 13 3 -3 4 -12 1 -19z m50 -150 c-2
-13 -4 -3 -4 22 0 25 2 35 4 23 2 -13 2 -33 0 -45z m-1094 -112 c4 4 7 5 7 1
0 -21 -22 -11 -56 26 l-39 42 41 -38 c22 -20 43 -34 47 -31z m4047 -99 c0 -2
-10 -12 -22 -23 l-23 -19 19 23 c18 21 26 27 26 19z m-2940 -272 c0 -5 -5 -3
-10 5 -5 8 -10 20 -10 25 0 6 5 3 10 -5 5 -8 10 -19 10 -25z m487 -141 c-3 -3
-12 -4 -19 -1 -8 3 -5 6 6 6 11 1 17 -2 13 -5z m470 -60 c-3 -3 -12 -4 -19 -1
-8 3 -5 6 6 6 11 1 17 -2 13 -5z m510 -10 c-3 -3 -12 -4 -19 -1 -8 3 -5 6 6 6
11 1 17 -2 13 -5z m56 -1 c-7 -2 -19 -2 -25 0 -7 3 -2 5 12 5 14 0 19 -2 13
-5z m-770 -40 c-7 -2 -19 -2 -25 0 -7 3 -2 5 12 5 14 0 19 -2 13 -5z m184 -19
c-3 -3 -12 -4 -19 -1 -8 3 -5 6 6 6 11 1 17 -2 13 -5z"/>
<path d="M2040 3096 c0 -2 8 -10 18 -17 15 -13 16 -12 3 4 -13 16 -21 21 -21
13z"/>
<path d="M5067 3573 c-4 -3 -7 -11 -7 -17 0 -6 5 -5 12 2 6 6 9 14 7 17 -3 3
-9 2 -12 -2z"/>
</g>
</svg>
